<svg width="360" height="189" viewBox="0 0 360 189" fill="none" xmlns="http://www.w3.org/2000/svg">
<path d="M0 0H360V142C360 167.405 339.405 188 314 188H46C20.5949 188 0 167.405 0 142V0Z" fill="#007BFF"/>
<path d="M181.248 58.0029C259.319 50.4649 347.018 87.5844 360 97.1106V144.24C360 144.24 356.505 188.863 313.065 188.863C269.626 188.863 116.838 185.855 59.9168 188.863C2.99585 191.872 0 144.24 0 144.24C101.359 93.0995 103.356 65.5236 181.248 58.0029Z" fill="#0097D1" fill-opacity="0.71"/>
<path d="M176.5 110.5C244.5 58.1 353.833 56.6667 400 62.5L384 -17.5L218 -28.5L-84 -35L-90.5 127C-29.8333 143.333 108.5 162.9 176.5 110.5Z" fill="#02A9EA" fill-opacity="0.43"/>
</svg>
