<svg width="136" height="84" viewBox="0 0 136 84" fill="none" xmlns="http://www.w3.org/2000/svg">
<g filter="url(#filter0_d)">
<rect x="30" y="26" width="90" height="24" rx="12" fill="white"/>
</g>
<path d="M55.26 33.6H56.46V42H55.26V33.6ZM61.4228 42.096C60.7908 42.096 60.1788 42 59.5868 41.808C59.0028 41.608 58.5428 41.352 58.2068 41.04L58.6508 40.104C58.9708 40.392 59.3788 40.628 59.8748 40.812C60.3788 40.988 60.8948 41.076 61.4228 41.076C62.1188 41.076 62.6388 40.96 62.9828 40.728C63.3268 40.488 63.4988 40.172 63.4988 39.78C63.4988 39.492 63.4028 39.26 63.2108 39.084C63.0268 38.9 62.7948 38.76 62.5148 38.664C62.2428 38.568 61.8548 38.46 61.3508 38.34C60.7188 38.188 60.2068 38.036 59.8148 37.884C59.4308 37.732 59.0988 37.5 58.8188 37.188C58.5468 36.868 58.4108 36.44 58.4108 35.904C58.4108 35.456 58.5268 35.052 58.7588 34.692C58.9988 34.332 59.3588 34.044 59.8388 33.828C60.3188 33.612 60.9148 33.504 61.6268 33.504C62.1228 33.504 62.6108 33.568 63.0908 33.696C63.5708 33.824 63.9828 34.008 64.3268 34.248L63.9308 35.208C63.5788 34.984 63.2028 34.816 62.8028 34.704C62.4028 34.584 62.0108 34.524 61.6268 34.524C60.9468 34.524 60.4348 34.648 60.0908 34.896C59.7548 35.144 59.5868 35.464 59.5868 35.856C59.5868 36.144 59.6828 36.38 59.8748 36.564C60.0668 36.74 60.3028 36.88 60.5828 36.984C60.8708 37.08 61.2588 37.184 61.7468 37.296C62.3788 37.448 62.8868 37.6 63.2708 37.752C63.6548 37.904 63.9828 38.136 64.2548 38.448C64.5348 38.76 64.6748 39.18 64.6748 39.708C64.6748 40.148 64.5548 40.552 64.3148 40.92C64.0748 41.28 63.7108 41.568 63.2228 41.784C62.7348 41.992 62.1348 42.096 61.4228 42.096ZM66.428 33.6H67.628V42H66.428V33.6ZM75.8135 42.096C75.1815 42.096 74.5695 42 73.9775 41.808C73.3935 41.608 72.9335 41.352 72.5975 41.04L73.0415 40.104C73.3615 40.392 73.7695 40.628 74.2655 40.812C74.7695 40.988 75.2855 41.076 75.8135 41.076C76.5095 41.076 77.0295 40.96 77.3735 40.728C77.7175 40.488 77.8895 40.172 77.8895 39.78C77.8895 39.492 77.7935 39.26 77.6015 39.084C77.4175 38.9 77.1855 38.76 76.9055 38.664C76.6335 38.568 76.2455 38.46 75.7415 38.34C75.1095 38.188 74.5975 38.036 74.2055 37.884C73.8215 37.732 73.4895 37.5 73.2095 37.188C72.9375 36.868 72.8015 36.44 72.8015 35.904C72.8015 35.456 72.9175 35.052 73.1495 34.692C73.3895 34.332 73.7495 34.044 74.2295 33.828C74.7095 33.612 75.3055 33.504 76.0175 33.504C76.5135 33.504 77.0015 33.568 77.4815 33.696C77.9615 33.824 78.3735 34.008 78.7175 34.248L78.3215 35.208C77.9695 34.984 77.5935 34.816 77.1935 34.704C76.7935 34.584 76.4015 34.524 76.0175 34.524C75.3375 34.524 74.8255 34.648 74.4815 34.896C74.1455 35.144 73.9775 35.464 73.9775 35.856C73.9775 36.144 74.0735 36.38 74.2655 36.564C74.4575 36.74 74.6935 36.88 74.9735 36.984C75.2615 37.08 75.6495 37.184 76.1375 37.296C76.7695 37.448 77.2775 37.6 77.6615 37.752C78.0455 37.904 78.3735 38.136 78.6455 38.448C78.9255 38.76 79.0655 39.18 79.0655 39.708C79.0655 40.148 78.9455 40.552 78.7055 40.92C78.4655 41.28 78.1015 41.568 77.6135 41.784C77.1255 41.992 76.5255 42.096 75.8135 42.096ZM86.1706 39.9H81.7066L80.7826 42H79.5466L83.3506 33.6H84.5386L88.3546 42H87.0946L86.1706 39.9ZM85.7506 38.94L83.9386 34.824L82.1266 38.94H85.7506ZM89.6077 33.6H90.8077V40.956H95.3557V42H89.6077V33.6ZM96.7327 33.6H100.273C101.161 33.6 101.949 33.776 102.637 34.128C103.325 34.48 103.857 34.976 104.233 35.616C104.617 36.248 104.809 36.976 104.809 37.8C104.809 38.624 104.617 39.356 104.233 39.996C103.857 40.628 103.325 41.12 102.637 41.472C101.949 41.824 101.161 42 100.273 42H96.7327V33.6ZM100.201 40.956C100.881 40.956 101.477 40.824 101.989 40.56C102.509 40.296 102.909 39.928 103.189 39.456C103.469 38.976 103.609 38.424 103.609 37.8C103.609 37.176 103.469 36.628 103.189 36.156C102.909 35.676 102.509 35.304 101.989 35.04C101.477 34.776 100.881 34.644 100.201 34.644H97.9327V40.956H100.201ZM110.439 42.096C109.591 42.096 108.827 41.912 108.147 41.544C107.467 41.168 106.931 40.652 106.539 39.996C106.155 39.34 105.963 38.608 105.963 37.8C105.963 36.992 106.155 36.26 106.539 35.604C106.931 34.948 107.467 34.436 108.147 34.068C108.827 33.692 109.591 33.504 110.439 33.504C111.279 33.504 112.039 33.692 112.719 34.068C113.399 34.436 113.931 34.948 114.315 35.604C114.699 36.252 114.891 36.984 114.891 37.8C114.891 38.616 114.699 39.352 114.315 40.008C113.931 40.656 113.399 41.168 112.719 41.544C112.039 41.912 111.279 42.096 110.439 42.096ZM110.439 41.028C111.055 41.028 111.607 40.888 112.095 40.608C112.591 40.328 112.979 39.944 113.259 39.456C113.547 38.96 113.691 38.408 113.691 37.8C113.691 37.192 113.547 36.644 113.259 36.156C112.979 35.66 112.591 35.272 112.095 34.992C111.607 34.712 111.055 34.572 110.439 34.572C109.823 34.572 109.263 34.712 108.759 34.992C108.263 35.272 107.871 35.66 107.583 36.156C107.303 36.644 107.163 37.192 107.163 37.8C107.163 38.408 107.303 38.96 107.583 39.456C107.871 39.944 108.263 40.328 108.759 40.608C109.263 40.888 109.823 41.028 110.439 41.028Z" fill="#2B99FF"/>
<path d="M42.6668 34.6668H41.3335V37.3335H38.6668V38.6668H41.3335V41.3335H42.6668V38.6668H45.3335V37.3335H42.6668V34.6668ZM42.0002 31.3335C38.3202 31.3335 35.3335 34.3202 35.3335 38.0002C35.3335 41.6802 38.3202 44.6668 42.0002 44.6668C45.6802 44.6668 48.6668 41.6802 48.6668 38.0002C48.6668 34.3202 45.6802 31.3335 42.0002 31.3335ZM42.0002 43.3335C39.0602 43.3335 36.6668 40.9402 36.6668 38.0002C36.6668 35.0602 39.0602 32.6668 42.0002 32.6668C44.9402 32.6668 47.3335 35.0602 47.3335 38.0002C47.3335 40.9402 44.9402 43.3335 42.0002 43.3335Z" fill="#2B99FF"/>
<defs>
<filter id="filter0_d" x="0" y="0" width="150" height="84" filterUnits="userSpaceOnUse" color-interpolation-filters="sRGB">
<feFlood flood-opacity="0" result="BackgroundImageFix"/>
<feColorMatrix in="SourceAlpha" type="matrix" values="0 0 0 0 0 0 0 0 0 0 0 0 0 0 0 0 0 0 127 0"/>
<feOffset dy="4"/>
<feGaussianBlur stdDeviation="15"/>
<feColorMatrix type="matrix" values="0 0 0 0 0 0 0 0 0 0 0 0 0 0 0 0 0 0 0.2 0"/>
<feBlend mode="normal" in2="BackgroundImageFix" result="effect1_dropShadow"/>
<feBlend mode="normal" in="SourceGraphic" in2="effect1_dropShadow" result="shape"/>
</filter>
</defs>
</svg>
