<svg width="24" height="24" viewBox="0 0 24 24" fill="none" xmlns="http://www.w3.org/2000/svg">
<circle cx="12" cy="12" r="10" fill="#9E00FF"/>
<path d="M15.75 9.375H15.125V8.125C15.125 6.4 13.725 5 12 5C10.275 5 8.875 6.4 8.875 8.125V9.375H8.25C7.5625 9.375 7 9.9375 7 10.625V16.875C7 17.5625 7.5625 18.125 8.25 18.125H15.75C16.4375 18.125 17 17.5625 17 16.875V10.625C17 9.9375 16.4375 9.375 15.75 9.375ZM12 15C11.3125 15 10.75 14.4375 10.75 13.75C10.75 13.0625 11.3125 12.5 12 12.5C12.6875 12.5 13.25 13.0625 13.25 13.75C13.25 14.4375 12.6875 15 12 15ZM13.9375 9.375H10.0625V8.125C10.0625 7.05625 10.9313 6.1875 12 6.1875C13.0687 6.1875 13.9375 7.05625 13.9375 8.125V9.375Z" fill="#F6E8FF"/>
</svg>
