<svg width="24" height="24" viewBox="0 0 24 24" fill="none" xmlns="http://www.w3.org/2000/svg">
<circle cx="12" cy="12" r="10" fill="#FF8181"/>
<path d="M17.3551 12.702C17.3821 12.477 17.4001 12.243 17.4001 12C17.4001 11.757 17.3821 11.523 17.3461 11.298L18.8671 10.11C19.0021 10.002 19.0381 9.80405 18.9571 9.65105L17.5171 7.15805C17.4271 6.99605 17.2381 6.94205 17.0761 6.99605L15.2851 7.71605C14.9071 7.42805 14.5111 7.19405 14.0701 7.01405L13.8001 5.10605C13.7731 4.92605 13.6201 4.80005 13.4401 4.80005H10.5601C10.3801 4.80005 10.2361 4.92605 10.2091 5.10605L9.93908 7.01405C9.49808 7.19405 9.09308 7.43705 8.72408 7.71605L6.93308 6.99605C6.77108 6.93305 6.58208 6.99605 6.49208 7.15805L5.05208 9.65105C4.96208 9.81305 4.99808 10.002 5.14208 10.11L6.66308 11.298C6.62708 11.523 6.60008 11.766 6.60008 12C6.60008 12.234 6.61808 12.477 6.65408 12.702L5.13308 13.89C4.99808 13.998 4.96208 14.196 5.04308 14.349L6.48308 16.842C6.57308 17.004 6.76208 17.058 6.92408 17.004L8.71508 16.284C9.09308 16.572 9.48908 16.806 9.93008 16.986L10.2001 18.894C10.2361 19.074 10.3801 19.2 10.5601 19.2H13.4401C13.6201 19.2 13.7731 19.074 13.7911 18.894L14.0611 16.986C14.5021 16.806 14.9071 16.563 15.2761 16.284L17.0671 17.004C17.2291 17.067 17.4181 17.004 17.5081 16.842L18.9481 14.349C19.0381 14.187 19.0021 13.998 18.8581 13.89L17.3551 12.702ZM12.0001 14.7C10.5151 14.7 9.30008 13.485 9.30008 12C9.30008 10.515 10.5151 9.30005 12.0001 9.30005C13.4851 9.30005 14.7001 10.515 14.7001 12C14.7001 13.485 13.4851 14.7 12.0001 14.7Z" fill="#FFF4F4"/>
</svg>
