<svg width="11" height="21" viewBox="0 0 11 21" fill="none" xmlns="http://www.w3.org/2000/svg">
<path d="M10.6743 7.17608H6.24969L10.3514 0.341797H5.18389L0.339355 10.5932H4.15038L0.339355 20.1612L10.6743 7.17608Z" fill="#FFDD09"/>
<path d="M6.47576 0.341797H5.18389L0.339355 10.5931H1.63122L6.47576 0.341797Z" fill="white"/>
<path d="M9.05924 7.17578L1.30798 16.9146L0.0161133 20.1609L10.3511 7.17578H9.05924Z" fill="#FD9808"/>
<path d="M0.339127 20.5028C0.274521 20.5028 0.209952 20.5028 0.17763 20.4686C0.0484549 20.3661 -0.0161516 20.1953 0.0484548 20.0586L3.6657 10.9348H0.339127C0.242236 10.9348 0.113061 10.8665 0.0484548 10.764C-0.0161516 10.6615 -0.0161516 10.5248 0.0484548 10.4223L4.89299 0.17087C4.9576 0.0683561 5.05449 0 5.18366 0H10.3512C10.4803 0 10.5772 0.0683561 10.6418 0.17087C10.7064 0.273384 10.7064 0.410056 10.6418 0.51257L6.86309 6.83428H10.6741C10.8033 6.83428 10.9002 6.90264 10.9648 7.03931C11.0294 7.17598 10.9971 7.31269 10.9325 7.41521L0.597477 20.4003C0.532909 20.4686 0.436018 20.5028 0.339127 20.5028ZM0.855865 10.2514H4.15015C4.24704 10.2514 4.34393 10.3198 4.40854 10.3881C4.47315 10.4906 4.47315 10.5931 4.44082 10.6956L1.46949 18.2133L9.99588 7.51768H6.24943C6.12025 7.51768 6.02336 7.44933 5.95875 7.34681C5.89415 7.2443 5.89415 7.10763 5.95875 7.00511L9.76981 0.68344H5.37745L0.855865 10.2514Z" fill="url(#paint0_linear)"/>
<defs>
<linearGradient id="paint0_linear" x1="5.5" y1="0" x2="5.5" y2="20.5028" gradientUnits="userSpaceOnUse">
<stop/>
<stop offset="1" stop-color="#C27F19"/>
</linearGradient>
</defs>
</svg>
