<svg width="32" height="39" viewBox="0 0 32 39" fill="none" xmlns="http://www.w3.org/2000/svg">
<g filter="url(#filter0_d)">
<path d="M22.6665 1.34683L9.33317 1.3335C7.8665 1.3335 6.6665 2.5335 6.6665 4.00016V28.0002C6.6665 29.4668 7.8665 30.6668 9.33317 30.6668H22.6665C24.1332 30.6668 25.3332 29.4668 25.3332 28.0002V4.00016C25.3332 2.5335 24.1332 1.34683 22.6665 1.34683ZM22.6665 25.3335H9.33317V6.66683H22.6665V25.3335Z" fill="url(#paint0_linear)"/>
<rect x="9" y="5" width="14" height="21" fill="url(#paint1_linear)"/>
<path d="M14.52 18L13.644 16.41H13.398V18H12.372V13.788H14.094C14.426 13.788 14.708 13.846 14.94 13.962C15.176 14.078 15.352 14.238 15.468 14.442C15.584 14.642 15.642 14.866 15.642 15.114C15.642 15.394 15.562 15.644 15.402 15.864C15.246 16.084 15.014 16.24 14.706 16.332L15.678 18H14.52ZM13.398 15.684H14.034C14.222 15.684 14.362 15.638 14.454 15.546C14.55 15.454 14.598 15.324 14.598 15.156C14.598 14.996 14.55 14.87 14.454 14.778C14.362 14.686 14.222 14.64 14.034 14.64H13.398V15.684ZM17.3121 15.126C17.4121 14.97 17.5501 14.844 17.7261 14.748C17.9021 14.652 18.1081 14.604 18.3441 14.604C18.6201 14.604 18.8701 14.674 19.0941 14.814C19.3181 14.954 19.4941 15.154 19.6221 15.414C19.7541 15.674 19.8201 15.976 19.8201 16.32C19.8201 16.664 19.7541 16.968 19.6221 17.232C19.4941 17.492 19.3181 17.694 19.0941 17.838C18.8701 17.978 18.6201 18.048 18.3441 18.048C18.1121 18.048 17.9061 18 17.7261 17.904C17.5501 17.808 17.4121 17.684 17.3121 17.532V19.596H16.2861V14.652H17.3121V15.126ZM18.7761 16.32C18.7761 16.064 18.7041 15.864 18.5601 15.72C18.4201 15.572 18.2461 15.498 18.0381 15.498C17.8341 15.498 17.6601 15.572 17.5161 15.72C17.3761 15.868 17.3061 16.07 17.3061 16.326C17.3061 16.582 17.3761 16.784 17.5161 16.932C17.6601 17.08 17.8341 17.154 18.0381 17.154C18.2421 17.154 18.4161 17.08 18.5601 16.932C18.7041 16.78 18.7761 16.576 18.7761 16.32Z" fill="white"/>
<path d="M17.5 28.4146C17.5 29.243 16.8284 29.9146 16 29.9146C15.1716 29.9146 14.5 29.243 14.5 28.4146C14.5 27.5861 15.1716 26.9146 16 26.9146C16.8284 26.9146 17.5 27.5861 17.5 28.4146Z" fill="white"/>
</g>
<defs>
<filter id="filter0_d" x="-4" y="0" width="40" height="40" filterUnits="userSpaceOnUse" color-interpolation-filters="sRGB">
<feFlood flood-opacity="0" result="BackgroundImageFix"/>
<feColorMatrix in="SourceAlpha" type="matrix" values="0 0 0 0 0 0 0 0 0 0 0 0 0 0 0 0 0 0 127 0"/>
<feOffset dy="4"/>
<feGaussianBlur stdDeviation="2"/>
<feColorMatrix type="matrix" values="0 0 0 0 0 0 0 0 0 0 0 0 0 0 0 0 0 0 0.25 0"/>
<feBlend mode="normal" in2="BackgroundImageFix" result="effect1_dropShadow"/>
<feBlend mode="normal" in="SourceGraphic" in2="effect1_dropShadow" result="shape"/>
</filter>
<linearGradient id="paint0_linear" x1="15.9998" y1="1.3335" x2="15.9998" y2="30.6668" gradientUnits="userSpaceOnUse">
<stop stop-color="#007BFF"/>
<stop offset="1" stop-color="#2B99FF"/>
</linearGradient>
<linearGradient id="paint1_linear" x1="21.5" y1="25.475" x2="9.65448" y2="4.96328" gradientUnits="userSpaceOnUse">
<stop stop-color="#FF9900"/>
<stop offset="1" stop-color="#FFCD83"/>
</linearGradient>
</defs>
</svg>
