<svg width="34" height="34" viewBox="0 0 34 34" fill="none" xmlns="http://www.w3.org/2000/svg">
<g filter="url(#filter0_d)">
<ellipse cx="16.935" cy="16.9998" rx="11.2549" ry="11.3953" fill="url(#paint0_linear)"/>
<path d="M16.9235 5.3125C10.5515 5.3125 5.3916 10.5485 5.3916 17C5.3916 23.4515 10.5515 28.6875 16.9235 28.6875C23.307 28.6875 28.4785 23.4515 28.4785 17C28.4785 10.5485 23.307 5.3125 16.9235 5.3125ZM24.9231 12.325H21.5178C21.1484 10.8641 20.6174 9.46156 19.9248 8.16425C22.0488 8.90056 23.8149 10.3966 24.9231 12.325ZM16.935 7.69675C17.8932 9.09925 18.6435 10.6537 19.1398 12.325H14.7302C15.2266 10.6537 15.9769 9.09925 16.935 7.69675ZM8.00042 19.3375C7.81572 18.5895 7.70029 17.8064 7.70029 17C7.70029 16.1936 7.81572 15.4105 8.00042 14.6625H11.9021C11.8098 15.4339 11.7405 16.2053 11.7405 17C11.7405 17.7948 11.8098 18.5661 11.9021 19.3375H8.00042ZM8.94698 21.675H12.3523C12.7217 23.1359 13.2527 24.5384 13.9453 25.8358C11.8213 25.0994 10.0552 23.6151 8.94698 21.675ZM12.3523 12.325H8.94698C10.0552 10.3849 11.8213 8.90056 13.9453 8.16425C13.2527 9.46156 12.7217 10.8641 12.3523 12.325ZM16.935 26.3032C15.9769 24.9007 15.2266 23.3463 14.7302 21.675H19.1398C18.6435 23.3463 17.8932 24.9007 16.935 26.3032ZM19.6362 19.3375H14.2339C14.13 18.5661 14.0492 17.7948 14.0492 17C14.0492 16.2053 14.13 15.4222 14.2339 14.6625H19.6362C19.7401 15.4222 19.8209 16.2053 19.8209 17C19.8209 17.7948 19.7401 18.5661 19.6362 19.3375ZM19.9248 25.8358C20.6174 24.5384 21.1484 23.1359 21.5178 21.675H24.9231C23.8149 23.6034 22.0488 25.0994 19.9248 25.8358ZM21.968 19.3375C22.0603 18.5661 22.1296 17.7948 22.1296 17C22.1296 16.2053 22.0603 15.4339 21.968 14.6625H25.8697C26.0544 15.4105 26.1698 16.1936 26.1698 17C26.1698 17.8064 26.0544 18.5895 25.8697 19.3375H21.968Z" fill="url(#paint1_linear)"/>
<path fill-rule="evenodd" clip-rule="evenodd" d="M4.1875 17.3868C4.1875 16.0275 4.38741 14.7182 4.75779 13.4875L2.84263 12.9111C2.41649 14.3272 2.1875 15.8306 2.1875 17.3868C2.1875 18.5832 2.32285 19.7486 2.57916 20.8671C3.06742 22.9979 3.99393 24.9559 5.25627 26.635L4.61729 27.2082L8.17016 28.4092L7.421 24.6934L6.75156 25.2939C5.70809 23.8672 4.93985 22.215 4.52863 20.4204C4.3057 19.4475 4.1875 18.432 4.1875 17.3868Z" fill="url(#paint2_linear)"/>
<path fill-rule="evenodd" clip-rule="evenodd" d="M29.8096 16.7733C29.8096 18.1326 29.6097 19.4419 29.2393 20.6727L31.1544 21.249C31.5806 19.833 31.8096 18.3296 31.8096 16.7733C31.8096 15.5769 31.6742 14.4116 31.4179 13.293C30.9793 11.3788 30.1869 9.60402 29.1151 8.04558L29.8422 7.37207L26.2893 6.17107L26.9993 10.0056L27.6301 9.42132C28.4786 10.7155 29.1095 12.1734 29.4684 13.7398C29.6914 14.7126 29.8096 15.7281 29.8096 16.7733Z" fill="url(#paint3_linear)"/>
</g>
<defs>
<filter id="filter0_d" x="-2" y="0" width="38" height="38" filterUnits="userSpaceOnUse" color-interpolation-filters="sRGB">
<feFlood flood-opacity="0" result="BackgroundImageFix"/>
<feColorMatrix in="SourceAlpha" type="matrix" values="0 0 0 0 0 0 0 0 0 0 0 0 0 0 0 0 0 0 127 0"/>
<feOffset dy="2"/>
<feGaussianBlur stdDeviation="1"/>
<feColorMatrix type="matrix" values="0 0 0 0 0 0 0 0 0 0 0 0 0 0 0 0 0 0 0.25 0"/>
<feBlend mode="normal" in2="BackgroundImageFix" result="effect1_dropShadow"/>
<feBlend mode="normal" in="SourceGraphic" in2="effect1_dropShadow" result="shape"/>
</filter>
<linearGradient id="paint0_linear" x1="25.7781" y1="27.8253" x2="15.7332" y2="2.05613" gradientUnits="userSpaceOnUse">
<stop stop-color="#FF9900"/>
<stop offset="1" stop-color="#FFCD83"/>
</linearGradient>
<linearGradient id="paint1_linear" x1="16.935" y1="5.3125" x2="16.935" y2="28.6875" gradientUnits="userSpaceOnUse">
<stop stop-color="#007BFF"/>
<stop offset="1" stop-color="#2B99FF"/>
</linearGradient>
<linearGradient id="paint2_linear" x1="7.52916" y1="28.0217" x2="-2.5639" y2="17.9017" gradientUnits="userSpaceOnUse">
<stop stop-color="#FF9900"/>
<stop offset="1" stop-color="#FFCD83"/>
</linearGradient>
<linearGradient id="paint3_linear" x1="26.8808" y1="6.54802" x2="36.6879" y2="15.874" gradientUnits="userSpaceOnUse">
<stop stop-color="#FF9900"/>
<stop offset="1" stop-color="#FFCD83"/>
</linearGradient>
</defs>
</svg>
