<svg width="21" height="24" viewBox="0 0 21 24" fill="none" xmlns="http://www.w3.org/2000/svg">
<path d="M0 0H21V24L10.5 18.8571L0 24V0Z" fill="#FF5F5F"/>
<path d="M5.376 12.096C4.79467 12.096 4.26933 11.9707 3.8 11.72C3.336 11.4693 2.97067 11.1253 2.704 10.688C2.44267 10.2453 2.312 9.74933 2.312 9.2C2.312 8.65067 2.44267 8.15733 2.704 7.72C2.97067 7.27733 3.336 6.93067 3.8 6.68C4.26933 6.42933 4.79467 6.304 5.376 6.304C5.95733 6.304 6.48 6.42933 6.944 6.68C7.408 6.93067 7.77333 7.27733 8.04 7.72C8.30667 8.15733 8.44 8.65067 8.44 9.2C8.44 9.74933 8.30667 10.2453 8.04 10.688C7.77333 11.1253 7.408 11.4693 6.944 11.72C6.48 11.9707 5.95733 12.096 5.376 12.096ZM5.376 10.992C5.70667 10.992 6.00533 10.9173 6.272 10.768C6.53867 10.6133 6.74667 10.4 6.896 10.128C7.05067 9.856 7.128 9.54667 7.128 9.2C7.128 8.85333 7.05067 8.544 6.896 8.272C6.74667 8 6.53867 7.78933 6.272 7.64C6.00533 7.48533 5.70667 7.408 5.376 7.408C5.04533 7.408 4.74667 7.48533 4.48 7.64C4.21333 7.78933 4.00267 8 3.848 8.272C3.69867 8.544 3.624 8.85333 3.624 9.2C3.624 9.54667 3.69867 9.856 3.848 10.128C4.00267 10.4 4.21333 10.6133 4.48 10.768C4.74667 10.9173 5.04533 10.992 5.376 10.992ZM10.71 7.44V8.92H13.302V9.96H10.71V12H9.414V6.4H13.646V7.44H10.71ZM15.8194 7.44V8.92H18.4114V9.96H15.8194V12H14.5234V6.4H18.7554V7.44H15.8194Z" fill="#F3F9FF"/>
</svg>
