<svg width="40" height="46" viewBox="0 0 40 46" fill="none" xmlns="http://www.w3.org/2000/svg">
<g filter="url(#filter0_d)">
<path d="M33.3466 32.1983C34.4516 31.4183 35.1666 30.1183 35.1666 28.6667L35.145 4.83333C35.145 2.45 33.2166 0.5 30.8333 0.5L9.16663 0.499999C6.7833 0.499998 4.85497 2.45 4.85497 4.83333L4.8333 28.6667C4.8333 30.1183 5.5483 31.4183 6.6533 32.1983L20 41.6667L33.3466 32.1983Z" fill="#FFE600"/>
</g>
<path d="M20 9.16675L22.4322 16.6524L30.3031 16.6524L23.9354 21.2788L26.3676 28.7644L20 24.138L13.6323 28.7644L16.0645 21.2788L9.69685 16.6524L17.5677 16.6524L20 9.16675Z" fill="white"/>
<defs>
<filter id="filter0_d" x="0.833252" y="0.5" width="38.3333" height="49.1667" filterUnits="userSpaceOnUse" color-interpolation-filters="sRGB">
<feFlood flood-opacity="0" result="BackgroundImageFix"/>
<feColorMatrix in="SourceAlpha" type="matrix" values="0 0 0 0 0 0 0 0 0 0 0 0 0 0 0 0 0 0 127 0"/>
<feOffset dy="4"/>
<feGaussianBlur stdDeviation="2"/>
<feColorMatrix type="matrix" values="0 0 0 0 0 0 0 0 0 0 0 0 0 0 0 0 0 0 0.25 0"/>
<feBlend mode="normal" in2="BackgroundImageFix" result="effect1_dropShadow"/>
<feBlend mode="normal" in="SourceGraphic" in2="effect1_dropShadow" result="shape"/>
</filter>
</defs>
</svg>
