<svg width="32" height="32" viewBox="0 0 32 32" fill="none" xmlns="http://www.w3.org/2000/svg">
<g clip-path="url(#clip0)">
<g filter="url(#filter0_d)">
<path d="M26.6665 2.6665H5.33317C3.8665 2.6665 2.67984 3.8665 2.67984 5.33317L2.6665 29.3332L7.99984 23.9998H26.6665C28.1332 23.9998 29.3332 22.7998 29.3332 21.3332V5.33317C29.3332 3.8665 28.1332 2.6665 26.6665 2.6665Z" fill="url(#paint0_linear)"/>
</g>
<g filter="url(#filter1_d)">
<path d="M9.504 16.096C9.06133 16.096 8.632 16.0373 8.216 15.92C7.80533 15.7973 7.47467 15.64 7.224 15.448L7.664 14.472C7.904 14.648 8.18933 14.7893 8.52 14.896C8.85067 15.0027 9.18133 15.056 9.512 15.056C9.88 15.056 10.152 15.0027 10.328 14.896C10.504 14.784 10.592 14.6373 10.592 14.456C10.592 14.3227 10.5387 14.2133 10.432 14.128C10.3307 14.0373 10.1973 13.9653 10.032 13.912C9.872 13.8587 9.65333 13.8 9.376 13.736C8.94933 13.6347 8.6 13.5333 8.328 13.432C8.056 13.3307 7.82133 13.168 7.624 12.944C7.432 12.72 7.336 12.4213 7.336 12.048C7.336 11.7227 7.424 11.4293 7.6 11.168C7.776 10.9013 8.04 10.6907 8.392 10.536C8.74933 10.3813 9.184 10.304 9.696 10.304C10.0533 10.304 10.4027 10.3467 10.744 10.432C11.0853 10.5173 11.384 10.64 11.64 10.8L11.24 11.784C10.7227 11.4907 10.2053 11.344 9.688 11.344C9.32533 11.344 9.056 11.4027 8.88 11.52C8.70933 11.6373 8.624 11.792 8.624 11.984C8.624 12.176 8.72267 12.32 8.92 12.416C9.12267 12.5067 9.42933 12.5973 9.84 12.688C10.2667 12.7893 10.616 12.8907 10.888 12.992C11.16 13.0933 11.392 13.2533 11.584 13.472C11.7813 13.6907 11.88 13.9867 11.88 14.36C11.88 14.68 11.7893 14.9733 11.608 15.24C11.432 15.5013 11.1653 15.7093 10.808 15.864C10.4507 16.0187 10.016 16.096 9.504 16.096ZM17.8616 16L17.8536 12.64L16.2056 15.408H15.6216L13.9816 12.712V16H12.7656V10.4H13.8376L15.9336 13.88L17.9976 10.4H19.0616L19.0776 16H17.8616ZM22.2462 16.096C21.8035 16.096 21.3742 16.0373 20.9582 15.92C20.5475 15.7973 20.2169 15.64 19.9662 15.448L20.4062 14.472C20.6462 14.648 20.9315 14.7893 21.2622 14.896C21.5929 15.0027 21.9235 15.056 22.2542 15.056C22.6222 15.056 22.8942 15.0027 23.0702 14.896C23.2462 14.784 23.3342 14.6373 23.3342 14.456C23.3342 14.3227 23.2809 14.2133 23.1742 14.128C23.0729 14.0373 22.9395 13.9653 22.7742 13.912C22.6142 13.8587 22.3955 13.8 22.1182 13.736C21.6915 13.6347 21.3422 13.5333 21.0702 13.432C20.7982 13.3307 20.5635 13.168 20.3662 12.944C20.1742 12.72 20.0782 12.4213 20.0782 12.048C20.0782 11.7227 20.1662 11.4293 20.3422 11.168C20.5182 10.9013 20.7822 10.6907 21.1342 10.536C21.4915 10.3813 21.9262 10.304 22.4382 10.304C22.7955 10.304 23.1449 10.3467 23.4862 10.432C23.8275 10.5173 24.1262 10.64 24.3822 10.8L23.9822 11.784C23.4649 11.4907 22.9475 11.344 22.4302 11.344C22.0675 11.344 21.7982 11.4027 21.6222 11.52C21.4515 11.6373 21.3662 11.792 21.3662 11.984C21.3662 12.176 21.4649 12.32 21.6622 12.416C21.8649 12.5067 22.1715 12.5973 22.5822 12.688C23.0089 12.7893 23.3582 12.8907 23.6302 12.992C23.9022 13.0933 24.1342 13.2533 24.3262 13.472C24.5235 13.6907 24.6222 13.9867 24.6222 14.36C24.6222 14.68 24.5315 14.9733 24.3502 15.24C24.1742 15.5013 23.9075 15.7093 23.5502 15.864C23.1929 16.0187 22.7582 16.096 22.2462 16.096Z" fill="url(#paint1_linear)"/>
</g>
</g>
<defs>
<filter id="filter0_d" x="0.666504" y="2.6665" width="30.6667" height="30.6667" filterUnits="userSpaceOnUse" color-interpolation-filters="sRGB">
<feFlood flood-opacity="0" result="BackgroundImageFix"/>
<feColorMatrix in="SourceAlpha" type="matrix" values="0 0 0 0 0 0 0 0 0 0 0 0 0 0 0 0 0 0 127 0"/>
<feOffset dy="2"/>
<feGaussianBlur stdDeviation="1"/>
<feColorMatrix type="matrix" values="0 0 0 0 0 0 0 0 0 0 0 0 0 0 0 0 0 0 0.25 0"/>
<feBlend mode="normal" in2="BackgroundImageFix" result="effect1_dropShadow"/>
<feBlend mode="normal" in="SourceGraphic" in2="effect1_dropShadow" result="shape"/>
</filter>
<filter id="filter1_d" x="5.22412" y="10.3042" width="21.3982" height="9.792" filterUnits="userSpaceOnUse" color-interpolation-filters="sRGB">
<feFlood flood-opacity="0" result="BackgroundImageFix"/>
<feColorMatrix in="SourceAlpha" type="matrix" values="0 0 0 0 0 0 0 0 0 0 0 0 0 0 0 0 0 0 127 0"/>
<feOffset dy="2"/>
<feGaussianBlur stdDeviation="1"/>
<feColorMatrix type="matrix" values="0 0 0 0 0 0 0 0 0 0 0 0 0 0 0 0 0 0 0.25 0"/>
<feBlend mode="normal" in2="BackgroundImageFix" result="effect1_dropShadow"/>
<feBlend mode="normal" in="SourceGraphic" in2="effect1_dropShadow" result="shape"/>
</filter>
<linearGradient id="paint0_linear" x1="15.9998" y1="2.6665" x2="15.9998" y2="29.3332" gradientUnits="userSpaceOnUse">
<stop stop-color="#2B99FF"/>
<stop offset="1" stop-color="#007BFF"/>
</linearGradient>
<linearGradient id="paint1_linear" x1="23.0714" y1="17.75" x2="20.4074" y2="5.29481" gradientUnits="userSpaceOnUse">
<stop stop-color="#FF9900"/>
<stop offset="1" stop-color="#FFCD83"/>
</linearGradient>
<clipPath id="clip0">
<rect width="32" height="32" fill="white"/>
</clipPath>
</defs>
</svg>
