<svg width="24" height="24" viewBox="0 0 24 24" fill="none" xmlns="http://www.w3.org/2000/svg">
<path d="M15.1333 4L14.2056 4.37323L14.4577 5H15.1333V4ZM8.86667 4V5H9.54226L9.79441 4.37323L8.86667 4ZM6.44444 15C5.89216 15 5.44444 15.4477 5.44444 16C5.44444 16.5523 5.89216 17 6.44444 17V15ZM14.2222 17C14.7745 17 15.2222 16.5523 15.2222 16C15.2222 15.4477 14.7745 15 14.2222 15V17ZM6.44444 11.7065C5.89216 11.7065 5.44444 12.1543 5.44444 12.7065C5.44444 13.2588 5.89216 13.7065 6.44444 13.7065V11.7065ZM17.5012 13.7065C18.0535 13.7065 18.5012 13.2588 18.5012 12.7065C18.5012 12.1543 18.0535 11.7065 17.5012 11.7065V13.7065ZM6.44444 8.28263C5.89216 8.28263 5.44444 8.73034 5.44444 9.28263C5.44444 9.83491 5.89216 10.2826 6.44444 10.2826V8.28263ZM17.5012 10.2826C18.0535 10.2826 18.5012 9.83491 18.5012 9.28263C18.5012 8.73034 18.0535 8.28263 17.5012 8.28263V10.2826ZM19.7778 3H15.1333V5H19.7778V3ZM16.0611 3.62677C15.4324 2.06398 13.826 1 12 1V3C13.0629 3 13.901 3.61602 14.2056 4.37323L16.0611 3.62677ZM12 1C10.174 1 8.56764 2.06398 7.93893 3.62677L9.79441 4.37323C10.099 3.61602 10.9371 3 12 3V1ZM8.86667 3H4.22222V5H8.86667V3ZM4.22222 3C2.54943 3 1 4.25122 1 6H3C3 5.54878 3.45057 5 4.22222 5V3ZM1 6V20H3V6H1ZM1 20C1 21.7488 2.54943 23 4.22222 23V21C3.45057 21 3 20.4512 3 20H1ZM4.22222 23H19.7778V21H4.22222V23ZM19.7778 23C21.4506 23 23 21.7488 23 20H21C21 20.4512 20.5494 21 19.7778 21V23ZM23 6C23 4.25122 21.4506 3 19.7778 3V5C20.5494 5 21 5.54878 21 6H23ZM6.44444 17H14.2222V15H6.44444V17ZM6.44444 10.2826H17.5012V8.28263H6.44444V10.2826ZM23 20V13H21V20H23ZM23 13V6H21V13H23ZM6.44444 13.7065H12V11.7065H6.44444V13.7065ZM12 13.7065H17.5012V11.7065H12V13.7065Z" fill="#6A6A6A"/>
<circle cx="12" cy="5" r="1" fill="#6A6A6A"/>
</svg>
