<svg width="32" height="32" viewBox="0 0 32 32" fill="none" xmlns="http://www.w3.org/2000/svg">
<g filter="url(#filter0_d)">
<path d="M12.5 10.5H10.5H10V13H7.5V15H10V17.5H12.5V15H15V13H12.5V10.5Z" fill="url(#paint0_linear)"/>
<circle cx="23" cy="16" r="2" fill="url(#paint1_linear)"/>
<circle cx="20" cy="12" r="2" fill="url(#paint2_linear)"/>
<path d="M28.7731 21.4532L27.3198 11.2398C26.9464 8.61317 24.6931 6.6665 22.0398 6.6665H9.95976C7.30643 6.6665 5.05309 8.61317 4.67976 11.2398L3.22643 21.4532C2.93309 23.5065 4.51976 25.3332 6.58643 25.3332C7.49309 25.3332 8.34643 24.9732 8.98643 24.3332L11.9998 21.3332H19.9998L22.9998 24.3332C23.6398 24.9732 24.5064 25.3332 25.3998 25.3332C27.4798 25.3332 29.0664 23.5065 28.7731 21.4532ZM14.6664 14.6665H11.9998V17.3332H10.6664V14.6665H7.99976V13.3332H10.6664V10.6665H11.9998V13.3332H14.6664V14.6665ZM19.9998 13.3332C19.2664 13.3332 18.6664 12.7332 18.6664 11.9998C18.6664 11.2665 19.2664 10.6665 19.9998 10.6665C20.7331 10.6665 21.3331 11.2665 21.3331 11.9998C21.3331 12.7332 20.7331 13.3332 19.9998 13.3332ZM22.6664 17.3332C21.9331 17.3332 21.3331 16.7332 21.3331 15.9998C21.3331 15.2665 21.9331 14.6665 22.6664 14.6665C23.3998 14.6665 23.9998 15.2665 23.9998 15.9998C23.9998 16.7332 23.3998 17.3332 22.6664 17.3332Z" fill="url(#paint3_linear)"/>
</g>
<defs>
<filter id="filter0_d" x="1.19141" y="6.6665" width="29.6167" height="22.6667" filterUnits="userSpaceOnUse" color-interpolation-filters="sRGB">
<feFlood flood-opacity="0" result="BackgroundImageFix"/>
<feColorMatrix in="SourceAlpha" type="matrix" values="0 0 0 0 0 0 0 0 0 0 0 0 0 0 0 0 0 0 127 0"/>
<feOffset dy="2"/>
<feGaussianBlur stdDeviation="1"/>
<feColorMatrix type="matrix" values="0 0 0 0 0 0 0 0 0 0 0 0 0 0 0 0 0 0 0.25 0"/>
<feBlend mode="normal" in2="BackgroundImageFix" result="effect1_dropShadow"/>
<feBlend mode="normal" in="SourceGraphic" in2="effect1_dropShadow" result="shape"/>
</filter>
<linearGradient id="paint0_linear" x1="14.1964" y1="17.325" x2="11.2949" y2="9.25013" gradientUnits="userSpaceOnUse">
<stop stop-color="#FF9900"/>
<stop offset="1" stop-color="#FFCD83"/>
</linearGradient>
<linearGradient id="paint1_linear" x1="24.5714" y1="17.9" x2="22.8245" y2="13.3626" gradientUnits="userSpaceOnUse">
<stop stop-color="#FF9900"/>
<stop offset="1" stop-color="#FFCD83"/>
</linearGradient>
<linearGradient id="paint2_linear" x1="21.5714" y1="13.9" x2="19.8245" y2="9.36256" gradientUnits="userSpaceOnUse">
<stop stop-color="#FF9900"/>
<stop offset="1" stop-color="#FFCD83"/>
</linearGradient>
<linearGradient id="paint3_linear" x1="15.9998" y1="6.6665" x2="15.9998" y2="25.3332" gradientUnits="userSpaceOnUse">
<stop stop-color="#2B99FF"/>
<stop offset="1" stop-color="#007BFF"/>
</linearGradient>
</defs>
</svg>
