<svg width="34" height="32" viewBox="0 0 34 32" fill="none" xmlns="http://www.w3.org/2000/svg">
<g filter="url(#filter0_d)">
<path fill-rule="evenodd" clip-rule="evenodd" d="M2 7C2 5.89543 2.89543 5 4 5H30C31.1046 5 32 5.89543 32 7V11.0247C30.2094 11.2315 28.821 12.7086 28.821 14.5C28.821 16.2914 30.2094 17.7685 32 17.9753V22C32 23.1046 31.1046 24 30 24H4C2.89543 24 2 23.1046 2 22V17.9646C3.74971 17.7219 5.09473 16.2632 5.09473 14.5C5.09473 12.7368 3.74971 11.2781 2 11.0354V7Z" fill="url(#paint0_linear)"/>
</g>
<line x1="9.72119" y1="5" x2="9.72119" y2="24" stroke="url(#paint1_linear)" stroke-dasharray="2 2"/>
<path d="M15.3399 7.2L14.1279 10H13.4879L12.2799 7.2H12.9799L13.8319 9.2L14.6959 7.2H15.3399ZM16.3935 10.032C16.1669 10.032 15.9629 9.98533 15.7815 9.892C15.6029 9.796 15.4629 9.664 15.3615 9.496C15.2602 9.328 15.2095 9.13733 15.2095 8.924C15.2095 8.71067 15.2602 8.52 15.3615 8.352C15.4629 8.184 15.6029 8.05333 15.7815 7.96C15.9629 7.864 16.1669 7.816 16.3935 7.816C16.6202 7.816 16.8229 7.864 17.0015 7.96C17.1802 8.05333 17.3202 8.184 17.4215 8.352C17.5229 8.52 17.5735 8.71067 17.5735 8.924C17.5735 9.13733 17.5229 9.328 17.4215 9.496C17.3202 9.664 17.1802 9.796 17.0015 9.892C16.8229 9.98533 16.6202 10.032 16.3935 10.032ZM16.3935 9.52C16.5535 9.52 16.6842 9.46667 16.7855 9.36C16.8895 9.25067 16.9415 9.10533 16.9415 8.924C16.9415 8.74267 16.8895 8.59867 16.7855 8.492C16.6842 8.38267 16.5535 8.328 16.3935 8.328C16.2335 8.328 16.1015 8.38267 15.9975 8.492C15.8935 8.59867 15.8415 8.74267 15.8415 8.924C15.8415 9.10533 15.8935 9.25067 15.9975 9.36C16.1015 9.46667 16.2335 9.52 16.3935 9.52ZM20.1586 7.848V10H19.5666V9.744C19.484 9.83733 19.3853 9.90933 19.2706 9.96C19.156 10.008 19.032 10.032 18.8986 10.032C18.616 10.032 18.392 9.95067 18.2266 9.788C18.0613 9.62533 17.9786 9.384 17.9786 9.064V7.848H18.6026V8.972C18.6026 9.31867 18.748 9.492 19.0386 9.492C19.188 9.492 19.308 9.444 19.3986 9.348C19.4893 9.24933 19.5346 9.104 19.5346 8.912V7.848H20.1586ZM21.7767 10.032C21.5474 10.032 21.3407 9.98533 21.1567 9.892C20.9754 9.796 20.8327 9.664 20.7287 9.496C20.6274 9.328 20.5767 9.13733 20.5767 8.924C20.5767 8.71067 20.6274 8.52 20.7287 8.352C20.8327 8.184 20.9754 8.05333 21.1567 7.96C21.3407 7.864 21.5474 7.816 21.7767 7.816C22.0034 7.816 22.2007 7.864 22.3687 7.96C22.5394 8.05333 22.6634 8.188 22.7407 8.364L22.2567 8.624C22.1447 8.42667 21.9834 8.328 21.7727 8.328C21.6101 8.328 21.4754 8.38133 21.3687 8.488C21.2621 8.59467 21.2087 8.74 21.2087 8.924C21.2087 9.108 21.2621 9.25333 21.3687 9.36C21.4754 9.46667 21.6101 9.52 21.7727 9.52C21.9861 9.52 22.1474 9.42133 22.2567 9.224L22.7407 9.488C22.6634 9.65867 22.5394 9.792 22.3687 9.888C22.2007 9.984 22.0034 10.032 21.7767 10.032ZM24.3924 7.816C24.6591 7.816 24.8737 7.896 25.0364 8.056C25.2017 8.216 25.2844 8.45333 25.2844 8.768V10H24.6604V8.864C24.6604 8.69333 24.6231 8.56667 24.5484 8.484C24.4737 8.39867 24.3657 8.356 24.2244 8.356C24.0671 8.356 23.9417 8.40533 23.8484 8.504C23.7551 8.6 23.7084 8.744 23.7084 8.936V10H23.0844V7.032H23.7084V8.072C23.7911 7.98933 23.8911 7.92667 24.0084 7.884C24.1257 7.83867 24.2537 7.816 24.3924 7.816ZM27.9814 8.932C27.9814 8.94 27.9774 8.996 27.9694 9.1H26.3414C26.3708 9.23333 26.4401 9.33867 26.5494 9.416C26.6588 9.49333 26.7948 9.532 26.9574 9.532C27.0694 9.532 27.1681 9.516 27.2534 9.484C27.3414 9.44933 27.4228 9.396 27.4974 9.324L27.8294 9.684C27.6268 9.916 27.3308 10.032 26.9414 10.032C26.6988 10.032 26.4841 9.98533 26.2974 9.892C26.1108 9.796 25.9668 9.664 25.8654 9.496C25.7641 9.328 25.7134 9.13733 25.7134 8.924C25.7134 8.71333 25.7628 8.524 25.8614 8.356C25.9628 8.18533 26.1001 8.05333 26.2734 7.96C26.4494 7.864 26.6454 7.816 26.8614 7.816C27.0721 7.816 27.2628 7.86133 27.4334 7.952C27.6041 8.04267 27.7374 8.17333 27.8334 8.344C27.9321 8.512 27.9814 8.708 27.9814 8.932ZM26.8654 8.288C26.7241 8.288 26.6054 8.328 26.5094 8.408C26.4134 8.488 26.3548 8.59733 26.3334 8.736H27.3934C27.3721 8.6 27.3134 8.492 27.2174 8.412C27.1214 8.32933 27.0041 8.288 26.8654 8.288ZM28.9929 8.132C29.0676 8.028 29.1676 7.94933 29.2929 7.896C29.4209 7.84267 29.5676 7.816 29.7329 7.816V8.392C29.6636 8.38667 29.6169 8.384 29.5929 8.384C29.4142 8.384 29.2742 8.43467 29.1729 8.536C29.0716 8.63467 29.0209 8.784 29.0209 8.984V10H28.3969V7.848H28.9929V8.132Z" fill="url(#paint2_linear)"/>
<line x1="13.8472" y1="15" x2="13.8472" y2="22" stroke="#4F4F4F"/>
<line x1="16.4102" y1="15" x2="16.4102" y2="22" stroke="#4F4F4F" stroke-width="2"/>
<line x1="18.7549" y1="15" x2="18.7549" y2="22" stroke="#4F4F4F" stroke-width="0.5"/>
<line x1="20.2866" y1="15" x2="20.2866" y2="22" stroke="#4F4F4F" stroke-width="1.5"/>
<line x1="22.0996" y1="15" x2="22.0996" y2="22" stroke="#4F4F4F"/>
<line x1="25.1631" y1="15" x2="25.1631" y2="22" stroke="#4F4F4F" stroke-width="3"/>
<g filter="url(#filter1_d)">
<ellipse cx="25.7264" cy="23" rx="4.12631" ry="4" fill="url(#paint3_linear)"/>
</g>
<defs>
<filter id="filter0_d" x="0" y="5" width="34" height="23" filterUnits="userSpaceOnUse" color-interpolation-filters="sRGB">
<feFlood flood-opacity="0" result="BackgroundImageFix"/>
<feColorMatrix in="SourceAlpha" type="matrix" values="0 0 0 0 0 0 0 0 0 0 0 0 0 0 0 0 0 0 127 0"/>
<feOffset dy="2"/>
<feGaussianBlur stdDeviation="1"/>
<feColorMatrix type="matrix" values="0 0 0 0 0 0 0 0 0 0 0 0 0 0 0 0 0 0 0.25 0"/>
<feBlend mode="normal" in2="BackgroundImageFix" result="effect1_dropShadow"/>
<feBlend mode="normal" in="SourceGraphic" in2="effect1_dropShadow" result="shape"/>
</filter>
<filter id="filter1_d" x="17.6001" y="15" width="16.2526" height="16" filterUnits="userSpaceOnUse" color-interpolation-filters="sRGB">
<feFlood flood-opacity="0" result="BackgroundImageFix"/>
<feColorMatrix in="SourceAlpha" type="matrix" values="0 0 0 0 0 0 0 0 0 0 0 0 0 0 0 0 0 0 127 0"/>
<feOffset/>
<feGaussianBlur stdDeviation="2"/>
<feColorMatrix type="matrix" values="0 0 0 0 0 0 0 0 0 0 0 0 0 0 0 0 0 0 0.25 0"/>
<feBlend mode="normal" in2="BackgroundImageFix" result="effect1_dropShadow"/>
<feBlend mode="normal" in="SourceGraphic" in2="effect1_dropShadow" result="shape"/>
</filter>
<linearGradient id="paint0_linear" x1="17" y1="5" x2="17" y2="24" gradientUnits="userSpaceOnUse">
<stop stop-color="#2B99FF"/>
<stop offset="1" stop-color="#007BFF"/>
</linearGradient>
<linearGradient id="paint1_linear" x1="8.24619" y1="21.9643" x2="9.54816" y2="21.9379" gradientUnits="userSpaceOnUse">
<stop stop-color="#FF9900"/>
<stop offset="1" stop-color="#FFCD83"/>
</linearGradient>
<linearGradient id="paint2_linear" x1="28.8948" y1="10.875" x2="28.2269" y2="4.43175" gradientUnits="userSpaceOnUse">
<stop stop-color="#FF9900"/>
<stop offset="1" stop-color="#FFCD83"/>
</linearGradient>
<linearGradient id="paint3_linear" x1="28.9685" y1="26.8" x2="25.5551" y2="17.6539" gradientUnits="userSpaceOnUse">
<stop stop-color="#FF9900"/>
<stop offset="1" stop-color="#FFCD83"/>
</linearGradient>
</defs>
</svg>
