<svg width="16" height="16" viewBox="0 0 16 16" fill="none" xmlns="http://www.w3.org/2000/svg">
<path d="M8.00016 1.3335C4.32016 1.3335 1.3335 4.32016 1.3335 8.00016C1.3335 11.6802 4.32016 14.6668 8.00016 14.6668C11.6802 14.6668 14.6668 11.6802 14.6668 8.00016C14.6668 4.32016 11.6802 1.3335 8.00016 1.3335ZM8.94016 12.0602V13.3335H7.16016V12.0468C6.02016 11.8068 5.0535 11.0735 4.98016 9.78016H6.28683C6.3535 10.4802 6.8335 11.0268 8.0535 11.0268C9.36016 11.0268 9.6535 10.3735 9.6535 9.96683C9.6535 9.4135 9.36016 8.8935 7.8735 8.54016C6.22016 8.14016 5.08683 7.46016 5.08683 6.0935C5.08683 4.94683 6.0135 4.20016 7.16016 3.9535V2.66683H8.94016V3.96683C10.1802 4.26683 10.8002 5.20683 10.8402 6.22683H9.5335C9.50016 5.48683 9.10683 4.98016 8.0535 4.98016C7.0535 4.98016 6.4535 5.4335 6.4535 6.0735C6.4535 6.6335 6.88683 7.00016 8.2335 7.34683C9.58016 7.6935 11.0202 8.2735 11.0202 9.9535C11.0135 11.1735 10.1002 11.8402 8.94016 12.0602Z" fill="#FF9900"/>
<circle cx="8" cy="8" r="6.5" fill="#FF9900"/>
<circle cx="8" cy="8" r="5" fill="#FFE600"/>
<path d="M8.20508 5.70117H7.79492C7.57617 5.70117 7.4668 5.60742 7.4668 5.41992C7.4668 5.30273 7.51172 5.2041 7.60156 5.12402C7.69141 5.04199 7.80078 5.00098 7.92969 5.00098H9.19824C9.58301 5.00098 9.87988 5.08594 10.0889 5.25586C10.2979 5.42383 10.4023 5.66406 10.4023 5.97656C10.4023 6.24609 10.3232 6.48828 10.165 6.70312C10.0088 6.91797 9.79883 7.07129 9.53516 7.16309C9.89258 7.33691 10.0713 7.63574 10.0713 8.05957C10.0713 8.33105 9.99707 8.59766 9.84863 8.85937C9.70215 9.11914 9.50781 9.32715 9.26562 9.4834C8.93945 9.69434 8.44727 9.7998 7.78906 9.7998H7.3584L7.32324 9.88184C7.18652 10.1846 7.0791 10.3984 7.00098 10.5234C6.92285 10.6484 6.82227 10.7676 6.69922 10.8809C6.37305 11.1797 6.00098 11.3291 5.58301 11.3291C5.24121 11.3291 4.95898 11.2275 4.73633 11.0244C4.51172 10.8213 4.39941 10.5625 4.39941 10.248C4.39941 10.0469 4.44727 9.85937 4.54297 9.68555C4.63867 9.51367 4.76855 9.37988 4.93262 9.28418C5.14551 9.16113 5.43457 9.09961 5.7998 9.09961H6.82227L8.20508 5.70117ZM8.57715 6.7998L8.75293 6.79687C9.02637 6.79687 9.2334 6.7334 9.37402 6.60645C9.44824 6.54004 9.50977 6.4541 9.55859 6.34863C9.60938 6.24316 9.63477 6.14551 9.63477 6.05566C9.63477 5.89355 9.56348 5.78613 9.4209 5.7334C9.36426 5.71191 9.24707 5.70117 9.06934 5.70117H9.02539L8.57715 6.7998ZM7.64551 9.09961H7.88281C8.30078 9.09961 8.61816 9.02734 8.83496 8.88281C8.97363 8.79102 9.08594 8.66504 9.17188 8.50488C9.25977 8.34473 9.30371 8.18359 9.30371 8.02148C9.30371 7.83008 9.24609 7.69531 9.13086 7.61719C9.01758 7.53906 8.81934 7.5 8.53613 7.5H8.29297L7.64551 9.09961ZM6.53809 9.7998H5.77637C5.39355 9.7998 5.20215 9.93652 5.20215 10.21C5.20215 10.3193 5.24316 10.4121 5.3252 10.4883C5.40918 10.5645 5.51074 10.6025 5.62988 10.6025C5.80762 10.6025 5.97656 10.5312 6.13672 10.3887C6.29688 10.248 6.43066 10.0518 6.53809 9.7998Z" fill="#FF9900"/>
</svg>
